<svg version="1.1" id="Layer_1" xmlns="http://www.w3.org/2000/svg" xmlns:xlink="http://www.w3.org/1999/xlink" x="0px" y="0px"
	 width="100%" viewBox="0 0 4676 4676" enable-background="new 0 0 4676 4676" xml:space="preserve">
<path fill="#FFFFFF" opacity="1.000000" stroke="none" 
	d="
M3044.000000,4680.000000 
	C2029.333374,4680.000000 1016.666687,4680.000000 4.000000,4680.000000 
	C4.000000,3121.333252 4.000000,1562.666626 4.000000,4.000001 
	C1562.666626,4.000000 3121.333252,4.000000 4680.000000,4.000000 
	C4680.000000,1562.666626 4680.000000,3121.333252 4680.000000,4680.000000 
	C4135.333496,4680.000000 3590.666748,4680.000000 3044.000000,4680.000000 
M2566.843262,2442.805176 
	C2632.467529,2349.910156 2698.498779,2257.299072 2763.555176,2164.008301 
	C2799.346191,2112.684326 2831.468018,2059.023926 2857.943604,2002.188721 
	C2869.162354,1978.105591 2880.047363,1953.854736 2888.629883,1925.502075 
	C2889.158936,1924.280640 2889.809570,1923.096802 2890.199219,1921.832397 
	C2911.739746,1851.954834 2922.482178,1780.920044 2917.104492,1707.453857 
	C2913.741211,1661.502075 2907.421143,1616.238159 2895.797607,1571.749390 
	C2868.576660,1467.560303 2820.417236,1374.707520 2746.540527,1295.570801 
	C2712.843262,1259.474365 2676.212402,1226.677856 2638.336182,1195.197021 
	C2627.697998,1186.355103 2615.750488,1179.088501 2602.918457,1168.928711 
	C2592.789062,1158.987061 2580.753418,1152.296143 2567.695557,1146.816162 
	C2482.759033,1111.171021 2394.631836,1095.952637 2302.551270,1103.022461 
	C2244.332520,1107.492554 2188.398438,1120.678833 2134.059570,1141.744385 
	C2116.366943,1148.603149 2100.687988,1157.815430 2085.302979,1172.391602 
	C2083.064697,1173.832886 2080.718262,1175.131592 2078.604004,1176.736450 
	C2036.586670,1208.634277 1997.627441,1243.968872 1960.488281,1281.392334 
	C1894.608154,1347.776611 1846.802246,1425.371704 1815.396606,1513.330811 
	C1784.997681,1598.470703 1771.771973,1686.168701 1775.934448,1776.420410 
	C1776.791992,1795.014771 1778.493652,1813.674683 1781.407471,1832.050537 
	C1790.859253,1891.657959 1809.844727,1948.312988 1835.550415,2002.862671 
	C1863.768311,2062.743164 1898.111450,2119.030029 1935.899902,2173.177246 
	C1996.154785,2259.516357 2057.260986,2345.261475 2117.972168,2431.282715 
	C2121.752686,2436.639404 2125.228516,2442.210938 2129.377686,2448.486328 
	C2124.577637,2455.601807 2120.285889,2462.243164 2115.719238,2468.689941 
	C2074.116211,2527.416748 2032.428589,2586.083740 1990.835205,2644.817383 
	C1855.657227,2835.701416 1720.502686,3026.602295 1585.401489,3217.540527 
	C1583.146484,3220.727539 1581.682495,3224.474365 1577.556030,3229.425293 
	C1573.188354,3234.212891 1570.677002,3239.165039 1575.125122,3245.425537 
	C1577.036377,3248.115723 1578.260376,3251.290039 1579.836426,3254.222900 
	C1636.577148,3359.818115 1693.313843,3465.414795 1750.101685,3570.984619 
	C1752.261597,3575.000000 1754.922852,3578.745850 1757.924927,3583.533203 
	C1761.521118,3579.185791 1764.684204,3575.827637 1767.326538,3572.100098 
	C1828.576782,3485.696045 1889.766724,3399.248779 1950.975830,3312.815186 
	C2060.305420,3158.430664 2169.674316,3004.073730 2278.943848,2849.646973 
	C2300.863281,2818.668945 2322.412109,2787.428955 2346.764893,2756.937988 
	C2349.836182,2760.386963 2353.262207,2763.583740 2355.922852,2767.324707 
	C2380.240479,2801.516113 2404.405518,2835.815430 2428.651855,2870.057373 
	C2542.186279,3030.396484 2655.733398,3190.726807 2769.275146,3351.060547 
	C2820.464844,3423.346191 2871.637695,3495.643311 2922.875488,3567.894775 
	C2926.223633,3572.616699 2930.057617,3576.993896 2935.088623,3583.321533 
	C2948.022705,3563.288574 2957.448486,3543.578125 2967.836670,3524.442627 
	C2978.002686,3505.716064 2988.001709,3486.898926 2998.079346,3468.124268 
	C3008.471680,3448.762695 3018.846924,3429.392090 3029.272217,3410.048340 
	C3039.697998,3390.704590 3050.181885,3371.392334 3060.630371,3352.061035 
	C3070.762207,3333.315430 3081.130859,3314.692871 3090.937012,3295.778564 
	C3100.986084,3276.396240 3112.370361,3257.655273 3120.835693,3237.243652 
	C3116.365234,3230.632568 3112.395508,3224.519043 3108.187012,3218.574463 
	C3016.988037,3089.750000 2925.749268,2960.953369 2834.546143,2832.131836 
	C2764.508789,2733.206055 2694.509033,2634.253662 2624.495117,2535.311279 
	C2606.799072,2510.303711 2589.071289,2485.318604 2571.461426,2460.250244 
	C2568.099365,2455.463867 2563.419189,2451.097900 2566.843262,2442.805176 
z"/>
<path fill="#E8517F" opacity="1.000000" stroke="none" 
	d="
M1579.849487,3227.959961 
	C1581.682495,3224.474365 1583.146484,3220.727539 1585.401489,3217.540527 
	C1720.502686,3026.602295 1855.657227,2835.701416 1990.835205,2644.817383 
	C2032.428589,2586.083740 2074.116211,2527.416748 2115.719238,2468.689941 
	C2120.285889,2462.243164 2124.577637,2455.601807 2129.377686,2448.486328 
	C2125.228516,2442.210938 2121.752686,2436.639404 2117.972168,2431.282715 
	C2057.260986,2345.261475 1996.154785,2259.516357 1935.899902,2173.177246 
	C1898.111450,2119.030029 1863.768311,2062.743164 1835.550415,2002.862671 
	C1809.844727,1948.312988 1790.859253,1891.657959 1781.407471,1832.050537 
	C1778.493652,1813.674683 1776.791992,1795.014771 1775.934448,1776.420410 
	C1771.771973,1686.168701 1784.997681,1598.470703 1815.396606,1513.330811 
	C1846.802246,1425.371704 1894.608154,1347.776611 1960.488281,1281.392334 
	C1997.627441,1243.968872 2036.586670,1208.634277 2078.604004,1176.736450 
	C2080.718262,1175.131592 2083.064697,1173.832886 2086.570312,1173.600586 
	C2084.815918,1179.930298 2082.227783,1185.373779 2078.698730,1190.116821 
	C2061.587646,1213.113281 2047.180176,1237.663452 2034.229492,1263.231323 
	C2006.531128,1317.914917 1991.108032,1375.732300 1987.860107,1436.881836 
	C1987.685059,1440.175537 1987.284302,1443.538086 1986.388672,1446.698730 
	C1982.298950,1461.130249 1982.792603,1476.055420 1985.031860,1490.288452 
	C1986.907715,1502.212402 1988.020386,1513.963867 1987.956787,1525.904785 
	C1987.912720,1534.177002 1989.205566,1541.802856 1995.251221,1549.321899 
	C1994.931396,1554.611206 1993.957642,1558.612061 1994.590820,1562.339844 
	C1999.515991,1591.338257 2008.596313,1619.151001 2019.329712,1646.456299 
	C2038.186401,1694.427612 2063.512695,1738.993896 2092.229736,1781.572998 
	C2120.898926,1824.080933 2150.558350,1865.927124 2180.112305,1907.831543 
	C2231.930176,1981.303833 2283.984619,2054.609375 2336.001953,2127.940918 
	C2338.972412,2132.128418 2342.498779,2135.921631 2346.324951,2140.577881 
	C2352.862793,2135.072266 2356.429932,2128.670654 2360.602783,2122.784668 
	C2417.607666,2042.375854 2474.735352,1962.053711 2531.572021,1881.526489 
	C2564.977051,1834.198120 2598.977295,1787.260132 2628.505371,1737.311279 
	C2656.763428,1689.510742 2680.000488,1639.616333 2693.657715,1585.530029 
	C2696.141602,1575.693115 2697.516846,1566.010986 2697.467529,1554.914551 
	C2702.554199,1544.603394 2704.753418,1535.057861 2704.133057,1524.843994 
	C2703.853760,1520.250366 2703.656494,1515.222168 2705.189453,1511.038574 
	C2708.279541,1502.604370 2707.689697,1494.049927 2707.996582,1485.453125 
	C2709.157959,1452.891724 2705.317627,1420.740723 2699.891846,1388.754028 
	C2691.854248,1341.371460 2676.144775,1296.396606 2654.505615,1253.681152 
	C2641.939697,1228.876099 2626.381348,1205.662231 2609.415039,1183.534302 
	C2606.494629,1179.725098 2603.671387,1176.222534 2604.403564,1171.099243 
	C2615.750488,1179.088501 2627.697998,1186.355103 2638.336182,1195.197021 
	C2676.212402,1226.677856 2712.843262,1259.474365 2746.540527,1295.570801 
	C2820.417236,1374.707520 2868.576660,1467.560303 2895.797607,1571.749390 
	C2907.421143,1616.238159 2913.741211,1661.502075 2917.104492,1707.453857 
	C2922.482178,1780.920044 2911.739746,1851.954834 2890.199219,1921.832397 
	C2889.809570,1923.096802 2889.158936,1924.280640 2886.525635,1926.995605 
	C2881.590088,1931.078979 2878.012451,1933.199829 2876.043945,1936.332275 
	C2858.032227,1964.989746 2840.759033,1994.120605 2822.343262,2022.512207 
	C2807.183105,2045.885254 2791.070068,2068.661133 2774.835938,2091.312256 
	C2747.036133,2130.100342 2718.880615,2168.634033 2690.732422,2207.171387 
	C2679.007080,2223.224121 2667.082764,2239.137939 2654.949463,2254.884033 
	C2642.014648,2271.670166 2628.819336,2288.258301 2615.566162,2304.795410 
	C2601.893799,2321.856201 2588.043701,2338.774658 2574.188965,2355.688232 
	C2572.517090,2357.729004 2570.446289,2359.493896 2568.363037,2361.136475 
	C2564.186035,2364.430664 2559.757812,2364.569580 2555.651367,2361.113281 
	C2551.585693,2357.691162 2547.801025,2353.907715 2544.104004,2350.079102 
	C2508.072021,2312.766113 2472.093262,2275.401611 2436.072266,2238.077881 
	C2431.446777,2233.285156 2426.587158,2228.718018 2421.985107,2223.903809 
	C2418.775146,2220.546143 2415.346436,2217.253662 2412.836182,2213.397705 
	C2403.990723,2199.810791 2391.346924,2189.879883 2380.022461,2178.690674 
	C2378.047363,2176.739502 2375.268066,2176.736328 2372.975342,2180.548828 
	C2374.027588,2182.339355 2375.179199,2184.630859 2376.629883,2186.713623 
	C2386.107666,2200.319092 2395.608887,2213.908447 2405.180176,2227.448242 
	C2427.764160,2259.395264 2450.392334,2291.311523 2473.001709,2323.240479 
	C2495.611084,2355.169434 2518.194336,2387.117188 2540.849609,2419.013428 
	C2545.842041,2426.042236 2550.825684,2433.111572 2556.366211,2439.697021 
	C2558.268066,2441.957520 2561.856689,2442.799072 2564.674561,2444.288818 
	C2563.419189,2451.097900 2568.099365,2455.463867 2571.461426,2460.250244 
	C2589.071289,2485.318604 2606.799072,2510.303711 2624.495117,2535.311279 
	C2694.509033,2634.253662 2764.508789,2733.206055 2834.546143,2832.131836 
	C2925.749268,2960.953369 3016.988037,3089.750000 3108.187012,3218.574463 
	C3112.395508,3224.519043 3116.365234,3230.632568 3120.835693,3237.243652 
	C3112.370361,3257.655273 3100.986084,3276.396240 3090.937012,3295.778564 
	C3081.130859,3314.692871 3070.762207,3333.315430 3060.630371,3352.061035 
	C3050.181885,3371.392334 3039.697998,3390.704590 3029.272217,3410.048340 
	C3018.846924,3429.392090 3008.471680,3448.762695 2998.079346,3468.124268 
	C2988.001709,3486.898926 2978.002686,3505.716064 2967.836670,3524.442627 
	C2957.448486,3543.578125 2948.022705,3563.288574 2935.088623,3583.321533 
	C2930.057617,3576.993896 2926.223633,3572.616699 2922.875488,3567.894775 
	C2871.637695,3495.643311 2820.464844,3423.346191 2769.275146,3351.060547 
	C2655.733398,3190.726807 2542.186279,3030.396484 2428.651855,2870.057373 
	C2404.405518,2835.815430 2380.240479,2801.516113 2355.922852,2767.324707 
	C2353.262207,2763.583740 2349.836182,2760.386963 2345.271484,2755.184570 
	C2341.072510,2748.147705 2338.914062,2742.484131 2335.558838,2737.651855 
	C2325.355225,2722.955566 2314.919434,2708.405029 2304.105713,2694.153320 
	C2298.667725,2686.986572 2295.679688,2677.659912 2287.112549,2672.918701 
	C2284.963623,2674.315186 2283.049561,2675.126953 2281.703857,2676.496826 
	C2250.942627,2707.808594 2219.114014,2737.993652 2186.606201,2767.485840 
	C2166.443604,2785.777832 2146.716064,2804.549072 2126.787598,2823.098877 
	C2125.813477,2824.005615 2124.789307,2824.858887 2123.778564,2825.725586 
	C2106.182861,2840.821289 2088.518066,2855.837158 2071.011230,2871.035156 
	C2057.989258,2882.339844 2045.446411,2894.210205 2032.198853,2905.238281 
	C2012.354980,2921.757080 1992.035400,2937.703369 1972.007446,2954.002686 
	C1962.241089,2961.950684 1952.877563,2970.403076 1942.975220,2978.172607 
	C1927.347168,2990.433594 1911.457642,3002.363525 1895.609009,3014.341064 
	C1867.060791,3035.916260 1838.890747,3058.025146 1809.774170,3078.806885 
	C1773.067505,3105.005859 1735.750488,3130.364258 1698.359619,3155.585449 
	C1666.997925,3176.740234 1635.298706,3197.407227 1603.408691,3217.756836 
	C1596.285522,3222.301758 1587.740112,3224.617920 1579.849487,3227.959961 
M1873.962280,1983.878906 
	C1899.323364,2034.870117 1916.371460,2063.312744 1929.861938,2077.140381 
	C1930.264893,2076.656738 1930.997803,2076.182861 1931.012695,2075.687988 
	C1931.070190,2073.766846 1931.424561,2071.623535 1930.736572,2069.945312 
	C1915.338135,2032.389648 1903.147461,1993.788940 1893.457520,1954.413696 
	C1885.864502,1923.559448 1878.930298,1892.604126 1875.495239,1860.865112 
	C1874.143188,1848.372559 1873.546753,1835.632812 1871.233765,1823.444702 
	C1868.590088,1809.514282 1868.218262,1795.776123 1867.957642,1781.846069 
	C1867.709595,1768.594727 1867.639282,1755.503052 1865.024536,1742.212402 
	C1862.768555,1730.745850 1864.682251,1718.390015 1865.286133,1706.454346 
	C1865.685669,1698.554932 1868.226685,1690.625732 1867.724121,1682.844482 
	C1866.169312,1658.765503 1870.083374,1635.086182 1872.544067,1611.387817 
	C1874.859985,1589.083130 1879.780884,1567.036377 1883.836060,1544.927612 
	C1890.419189,1509.037598 1898.992065,1473.630981 1910.470093,1438.966064 
	C1916.318359,1421.303589 1921.306396,1403.322632 1930.295898,1386.827148 
	C1931.602295,1384.430054 1933.591797,1380.763672 1928.050293,1378.760620 
	C1901.867920,1414.171753 1881.947266,1453.100952 1864.312744,1493.245361 
	C1857.107056,1509.648560 1850.023682,1526.283936 1845.029785,1543.438110 
	C1837.815186,1568.220581 1832.212036,1593.494629 1826.546021,1618.699585 
	C1819.997437,1647.831177 1815.663452,1677.288940 1815.924927,1707.280640 
	C1816.064453,1723.272827 1816.173828,1739.272217 1815.865356,1755.260010 
	C1815.351318,1781.906250 1818.238159,1808.011597 1823.340332,1834.279907 
	C1833.299805,1885.555664 1851.526123,1933.789062 1873.962280,1983.878906 
M1934.374023,2086.059814 
	C1934.374023,2086.059814 1933.911011,2086.350830 1934.374023,2086.059814 
z"/>
<path fill="#E2387A" opacity="1.000000" stroke="none" 
	d="
M1578.702759,3228.692627 
	C1587.740112,3224.617920 1596.285522,3222.301758 1603.408691,3217.756836 
	C1635.298706,3197.407227 1666.997925,3176.740234 1698.359619,3155.585449 
	C1735.750488,3130.364258 1773.067505,3105.005859 1809.774170,3078.806885 
	C1838.890747,3058.025146 1867.060791,3035.916260 1895.609009,3014.341064 
	C1911.457642,3002.363525 1927.347168,2990.433594 1942.975220,2978.172607 
	C1952.877563,2970.403076 1962.241089,2961.950684 1972.007446,2954.002686 
	C1992.035400,2937.703369 2012.354980,2921.757080 2032.198853,2905.238281 
	C2045.446411,2894.210205 2057.989258,2882.339844 2071.011230,2871.035156 
	C2088.518066,2855.837158 2106.182861,2840.821289 2123.778564,2825.725586 
	C2124.789307,2824.858887 2125.813477,2824.005615 2126.787598,2823.098877 
	C2146.716064,2804.549072 2166.443604,2785.777832 2186.606201,2767.485840 
	C2219.114014,2737.993652 2250.942627,2707.808594 2281.703857,2676.496826 
	C2283.049561,2675.126953 2284.963623,2674.315186 2287.112549,2672.918701 
	C2295.679688,2677.659912 2298.667725,2686.986572 2304.105713,2694.153320 
	C2314.919434,2708.405029 2325.355225,2722.955566 2335.558838,2737.651855 
	C2338.914062,2742.484131 2341.072510,2748.147705 2343.955078,2754.870605 
	C2322.412109,2787.428955 2300.863281,2818.668945 2278.943848,2849.646973 
	C2169.674316,3004.073730 2060.305420,3158.430664 1950.975830,3312.815186 
	C1889.766724,3399.248779 1828.576782,3485.696045 1767.326538,3572.100098 
	C1764.684204,3575.827637 1761.521118,3579.185791 1757.924927,3583.533203 
	C1754.922852,3578.745850 1752.261597,3575.000000 1750.101685,3570.984619 
	C1693.313843,3465.414795 1636.577148,3359.818115 1579.836426,3254.222900 
	C1578.260376,3251.290039 1577.036377,3248.115723 1575.125122,3245.425537 
	C1570.677002,3239.165039 1573.188354,3234.212891 1578.702759,3228.692627 
z"/>
<path fill="#D32B70" opacity="1.000000" stroke="none" 
	d="
M2603.661133,1170.013916 
	C2603.671387,1176.222534 2606.494629,1179.725098 2609.415039,1183.534302 
	C2626.381348,1205.662231 2641.939697,1228.876099 2654.505615,1253.681152 
	C2676.144775,1296.396606 2691.854248,1341.371460 2699.891846,1388.754028 
	C2705.317627,1420.740723 2709.157959,1452.891724 2707.996582,1485.453125 
	C2707.689697,1494.049927 2708.279541,1502.604370 2705.189453,1511.038574 
	C2703.656494,1515.222168 2703.853760,1520.250366 2704.133057,1524.843994 
	C2704.753418,1535.057861 2702.554199,1544.603394 2696.755371,1553.698364 
	C2675.434570,1506.504639 2641.463379,1475.094482 2593.162598,1458.984985 
	C2527.839844,1437.198120 2460.794434,1424.010132 2392.089600,1420.399658 
	C2337.561279,1417.534180 2283.116211,1419.109009 2228.937256,1427.479736 
	C2180.179443,1435.012939 2132.474121,1446.388672 2085.934570,1462.719604 
	C2065.518799,1469.883667 2047.886841,1481.394653 2032.151001,1496.173584 
	C2016.374634,1510.990112 2005.040771,1528.834717 1995.341797,1547.906860 
	C1989.205566,1541.802856 1987.912720,1534.177002 1987.956787,1525.904785 
	C1988.020386,1513.963867 1986.907715,1502.212402 1985.031860,1490.288452 
	C1982.792603,1476.055420 1982.298950,1461.130249 1986.388672,1446.698730 
	C1987.284302,1443.538086 1987.685059,1440.175537 1987.860107,1436.881836 
	C1991.108032,1375.732300 2006.531128,1317.914917 2034.229492,1263.231323 
	C2047.180176,1237.663452 2061.587646,1213.113281 2078.698730,1190.116821 
	C2082.227783,1185.373779 2084.815918,1179.930298 2087.933594,1173.398926 
	C2100.687988,1157.815430 2116.366943,1148.603149 2134.059570,1141.744385 
	C2188.398438,1120.678833 2244.332520,1107.492554 2302.551270,1103.022461 
	C2394.631836,1095.952637 2482.759033,1111.171021 2567.695557,1146.816162 
	C2580.753418,1152.296143 2592.789062,1158.987061 2603.661133,1170.013916 
z"/>
<path fill="#E2387A" opacity="1.000000" stroke="none" 
	d="
M2565.758789,2443.546875 
	C2561.856689,2442.799072 2558.268066,2441.957520 2556.366211,2439.697021 
	C2550.825684,2433.111572 2545.842041,2426.042236 2540.849609,2419.013428 
	C2518.194336,2387.117188 2495.611084,2355.169434 2473.001709,2323.240479 
	C2450.392334,2291.311523 2427.764160,2259.395264 2405.180176,2227.448242 
	C2395.608887,2213.908447 2386.107666,2200.319092 2376.629883,2186.713623 
	C2375.179199,2184.630859 2374.027588,2182.339355 2372.975342,2180.548828 
	C2375.268066,2176.736328 2378.047363,2176.739502 2380.022461,2178.690674 
	C2391.346924,2189.879883 2403.990723,2199.810791 2412.836182,2213.397705 
	C2415.346436,2217.253662 2418.775146,2220.546143 2421.985107,2223.903809 
	C2426.587158,2228.718018 2431.446777,2233.285156 2436.072266,2238.077881 
	C2472.093262,2275.401611 2508.072021,2312.766113 2544.104004,2350.079102 
	C2547.801025,2353.907715 2551.585693,2357.691162 2555.651367,2361.113281 
	C2559.757812,2364.569580 2564.186035,2364.430664 2568.363037,2361.136475 
	C2570.446289,2359.493896 2572.517090,2357.729004 2574.188965,2355.688232 
	C2588.043701,2338.774658 2601.893799,2321.856201 2615.566162,2304.795410 
	C2628.819336,2288.258301 2642.014648,2271.670166 2654.949463,2254.884033 
	C2667.082764,2239.137939 2679.007080,2223.224121 2690.732422,2207.171387 
	C2718.880615,2168.634033 2747.036133,2130.100342 2774.835938,2091.312256 
	C2791.070068,2068.661133 2807.183105,2045.885254 2822.343262,2022.512207 
	C2840.759033,1994.120605 2858.032227,1964.989746 2876.043945,1936.332275 
	C2878.012451,1933.199829 2881.590088,1931.078979 2885.753418,1928.299438 
	C2880.047363,1953.854736 2869.162354,1978.105591 2857.943604,2002.188721 
	C2831.468018,2059.023926 2799.346191,2112.684326 2763.555176,2164.008301 
	C2698.498779,2257.299072 2632.467529,2349.910156 2565.758789,2443.546875 
z"/>
<path fill="#FFFFFF" opacity="1.000000" stroke="none" 
	d="
M1995.251221,1549.321899 
	C2005.040771,1528.834717 2016.374634,1510.990112 2032.151001,1496.173584 
	C2047.886841,1481.394653 2065.518799,1469.883667 2085.934570,1462.719604 
	C2132.474121,1446.388672 2180.179443,1435.012939 2228.937256,1427.479736 
	C2283.116211,1419.109009 2337.561279,1417.534180 2392.089600,1420.399658 
	C2460.794434,1424.010132 2527.839844,1437.198120 2593.162598,1458.984985 
	C2641.463379,1475.094482 2675.434570,1506.504639 2695.670898,1554.749268 
	C2697.516846,1566.010986 2696.141602,1575.693115 2693.657715,1585.530029 
	C2680.000488,1639.616333 2656.763428,1689.510742 2628.505371,1737.311279 
	C2598.977295,1787.260132 2564.977051,1834.198120 2531.572021,1881.526489 
	C2474.735352,1962.053711 2417.607666,2042.375854 2360.602783,2122.784668 
	C2356.429932,2128.670654 2352.862793,2135.072266 2346.324951,2140.577881 
	C2342.498779,2135.921631 2338.972412,2132.128418 2336.001953,2127.940918 
	C2283.984619,2054.609375 2231.930176,1981.303833 2180.112305,1907.831543 
	C2150.558350,1865.927124 2120.898926,1824.080933 2092.229736,1781.572998 
	C2063.512695,1738.993896 2038.186401,1694.427612 2019.329712,1646.456299 
	C2008.596313,1619.151001 1999.515991,1591.338257 1994.590820,1562.339844 
	C1993.957642,1558.612061 1994.931396,1554.611206 1995.251221,1549.321899 
z"/>
<path fill="#F8699E" opacity="1.000000" stroke="none" 
	d="
M1873.264526,1982.543945 
	C1851.526123,1933.789062 1833.299805,1885.555664 1823.340332,1834.279907 
	C1818.238159,1808.011597 1815.351318,1781.906250 1815.865356,1755.260010 
	C1816.173828,1739.272217 1816.064453,1723.272827 1815.924927,1707.280640 
	C1815.663452,1677.288940 1819.997437,1647.831177 1826.546021,1618.699585 
	C1832.212036,1593.494629 1837.815186,1568.220581 1845.029785,1543.438110 
	C1850.023682,1526.283936 1857.107056,1509.648560 1864.312744,1493.245361 
	C1881.947266,1453.100952 1901.867920,1414.171753 1928.050293,1378.760620 
	C1933.591797,1380.763672 1931.602295,1384.430054 1930.295898,1386.827148 
	C1921.306396,1403.322632 1916.318359,1421.303589 1910.470093,1438.966064 
	C1898.992065,1473.630981 1890.419189,1509.037598 1883.836060,1544.927612 
	C1879.780884,1567.036377 1874.859985,1589.083130 1872.544067,1611.387817 
	C1870.083374,1635.086182 1866.169312,1658.765503 1867.724121,1682.844482 
	C1868.226685,1690.625732 1865.685669,1698.554932 1865.286133,1706.454346 
	C1864.682251,1718.390015 1862.768555,1730.745850 1865.024536,1742.212402 
	C1867.639282,1755.503052 1867.709595,1768.594727 1867.957642,1781.846069 
	C1868.218262,1795.776123 1868.590088,1809.514282 1871.233765,1823.444702 
	C1873.546753,1835.632812 1874.143188,1848.372559 1875.495239,1860.865112 
	C1878.930298,1892.604126 1885.864502,1923.559448 1893.457520,1954.413696 
	C1903.147461,1993.788940 1915.338135,2032.389648 1930.736572,2069.945312 
	C1931.424561,2071.623535 1931.070190,2073.766846 1931.012695,2075.687988 
	C1930.997803,2076.182861 1930.264893,2076.656738 1929.862061,2077.140381 
	C1916.371460,2063.312744 1899.323364,2034.870117 1873.264526,1982.543945 
z"/>
<path fill="#F8699E" opacity="1.000000" stroke="none" 
	d="
M1934.142578,2086.205322 
	C1933.911011,2086.350830 1934.374023,2086.059814 1934.142578,2086.205322 
z"/>
</svg>